<?xml version="1.0" standalone="no"?><!DOCTYPE svg PUBLIC "-//W3C//DTD SVG 1.1//EN" "http://www.w3.org/Graphics/SVG/1.1/DTD/svg11.dtd"><svg class="icon" width="200px" height="200.00px" viewBox="0 0 1024 1024" version="1.1" xmlns="http://www.w3.org/2000/svg"><path d="M187.104375 163.896814l649.792273 0c8.071839 0 14.125719-6.053879 14.125719-12.107759L851.022367 97.303116c0-8.071839-6.053879-14.125719-14.125719-14.125719L187.104375 83.177398c-8.071839 0-14.125719 6.053879-14.125719 14.125719l0 52.467979C172.977633 157.842934 179.032536 163.896814 187.104375 163.896814z"  /><path d="M953.939341 658.304134l-427.813622-423.777703c-8.071839-8.071839-20.179598-8.071839-28.251438 0L70.060659 658.304134c-12.107759 14.125719-4.03592 36.323277 14.125719 34.305317l215.924771 0 0 226.01457c0 12.107759 10.089799 22.197558 22.197558 22.197558l379.381563 0c12.107759 0 22.197558-10.089799 22.197558-24.215518L723.887828 692.609451l215.925794 0C957.975261 692.609451 966.0471 670.411893 953.939341 658.304134z"  /></svg>