<?xml version="1.0" standalone="no"?><!DOCTYPE svg PUBLIC "-//W3C//DTD SVG 1.1//EN" "http://www.w3.org/Graphics/SVG/1.1/DTD/svg11.dtd"><svg class="icon" width="200px" height="200.00px" viewBox="0 0 1024 1024" version="1.1" xmlns="http://www.w3.org/2000/svg"><path d="M512 34.909091c18.618182 0 34.909091 16.290909 34.909091 34.909091s-16.290909 34.909091-34.909091 34.909091C286.254545 104.727273 104.727273 286.254545 104.727273 512S286.254545 919.272727 512 919.272727 919.272727 737.745455 919.272727 512c0-18.618182 16.290909-34.909091 34.909091-34.909091s34.909091 16.290909 34.909091 34.909091c0 262.981818-214.109091 477.090909-477.090909 477.090909S34.909091 774.981818 34.909091 512 249.018182 34.909091 512 34.909091z m288.581818 209.454545L765.672727 209.454545c-13.963636-13.963636-11.636364-34.909091 0-48.872727 13.963636-13.963636 34.909091-11.636364 48.872728 0l74.472727 76.8c20.945455 23.272727 20.945455 58.181818 0 81.454546L816.872727 395.636364c-13.963636 13.963636-34.909091 13.963636-48.872727 0-13.963636-13.963636-13.963636-34.909091 0-48.872728l30.254545-32.581818-58.181818 2.327273c-118.690909 2.327273-214.109091 102.4-214.109091 221.090909V581.818182c0 18.618182-16.290909 34.909091-34.909091 34.909091s-34.909091-16.290909-34.90909-34.909091v-44.218182c0-158.254545 125.672727-286.254545 281.6-290.909091l62.836363-2.327273z" fill="#8a8a8a" /></svg>