<?xml version="1.0" standalone="no"?><!DOCTYPE svg PUBLIC "-//W3C//DTD SVG 1.1//EN" "http://www.w3.org/Graphics/SVG/1.1/DTD/svg11.dtd"><svg class="icon" width="200px" height="200.00px" viewBox="0 0 1024 1024" version="1.1" xmlns="http://www.w3.org/2000/svg"><path d="M595.343402 241.519535l186.486971 186.486971a16.995851 16.995851 0 0 0 24.036382 0l63.874656-63.832166a16.995851 16.995851 0 0 0 0.004249-24.036381l-0.004249-0.008498-186.57195-186.401992a16.995851 16.995851 0 0 0-24.032133 0.004249l-63.793926 63.751436a16.995851 16.995851 0 0 0 0 24.04063z m-69.100879 45.039004l-343.826058 343.711337a84.979253 84.979253 0 0 0-24.890424 61.219053l2.081992 157.899951a16.995851 16.995851 0 0 0 16.987353 16.770655l190.863402 0.025494a0.220946 0.220946 0 0 0 0.072233-0.012747 0.178456 0.178456 0 0 0 0.067983-0.042489l369.166872-369.043652a16.995851 16.995851 0 0 0 0.004248-24.036382l-186.491219-186.486971a16.995851 16.995851 0 0 0-24.032133 0z m385.737826 5.502407c33.222639 33.209892 33.222639 87.048498 0 120.25839L412.693245 911.427983a85.085477 85.085477 0 0 1-60.04634 24.903171l-180.139021 0.229444c-46.98078 0.059485-85.11522-37.960232-85.174706-84.924017L87.103734 670.928199a85.017494 85.017494 0 0 1 24.915917-60.233294L611.217527 111.675485c33.222639-33.209892 87.08249-33.209892 120.305129 0l180.457693 180.385461z m-325.538523 580.790705h307.97756c23.458523 0 42.47688 6.26722 42.47688 29.729992 0 23.458523-19.018357 33.978954-42.47688 33.978955h-307.956315a31.86722 31.86722 0 0 1-31.86722-31.854474 31.845975 31.845975 0 0 1 31.837477-31.858722h0.008498z" fill="#2c2c2c" /></svg>